<svg xmlns="http://www.w3.org/2000/svg" viewBox="0 0 24 24"><path d="M12.4 6.5H11.6V5.7H12.4V6.5Z"/><path d="M16.2 10.3H15.4V9.5H16.2V10.3Z"/><path d="M12.4 18.3H11.6V17.5H12.4V18.3Z"/><path d="M12.4 14.3H11.6V13.5H12.4V14.3Z"/><path d="M12.4 10.3H11.6V9.5H12.4V10.3Z"/><path d="M8.6 10.3H7.8V9.5H8.6V10.3Z"/><path d="M20.9 12.8V11.2H22.5V12.8H20.9Z"/><path d="M1.5 12.8V11.2H3.1V12.8H1.5Z"/><path d="M12.8 22.5V20.9H11.2V22.5H12.8Z"/><path d="M12.8 3.1V1.5H11.2V3.1H12.8Z"/><path d="M18.9 17.3L17.8 16.2L16.6 17.3L17.3 16.6L16.2 15.4L17.3 14.3L16.2 13.2L17.3 12.1L16.2 11L17.3 9.9L16.2 8.8L17.3 7.7L16.2 6.6L17.7 5.1L18.9 6.2L17.7 7.3L18.9 8.4L17.7 9.5L18.9 10.6L17.7 11.7L18.9 12.8L17.7 13.9L18.9 15L17.7 16.1L18.9 17.3L17.7 18.4L18.9 19.5L17.7 20.6L18.9 21.7L20 20.6L18.9 19.5L20 18.4L18.9 17.3Z"/><path d="M7.7 18.4L6.6 19.5L5.1 17.7L6.6 16.2L7.7 17.3L6.6 18.4Z"/><path d="M5.1 6.2L6.2 5.1L7.7 6.6L6.6 7.7L5.1 6.2Z"/><path d="M7.4 16.1L6.2 15L7.4 13.9L6.2 12.8L7.4 11.7L6.2 10.6L7.4 9.5L6.2 8.4L7.4 7.3L6.2 6.2L4 8.4L5.1 9.5L4 10.6L5.1 11.7L4 12.8L5.1 13.9L4 15L5.1 16.1L4 17.3L5.1 18.4L4 19.5L6.2 21.7L7.4 20.6L6.2 19.5L7.4 18.4L6.2 17.3L7.4 16.1Z"/></svg>